<svg xmlns="http://www.w3.org/2000/svg" width="612" height="792"><path fill="#086788" d="M358.501 396l158.647-158.647 32.717-32.716c4.826-4.826 4.826-12.669 0-17.495l-35.006-35.006c-4.826-4.826-12.669-4.826-17.495 0L306 343.499 114.636 152.12c-4.826-4.826-12.669-4.826-17.495 0L62.12 187.125c-4.826 4.826-4.826 12.669 0 17.495L253.499 396 62.12 587.364c-4.826 4.826-4.826 12.669 0 17.495l35.006 35.006c4.826 4.826 12.669 4.826 17.495 0L306 448.501l158.647 158.647 32.717 32.717c4.826 4.826 12.669 4.826 17.495 0l35.006-35.006c4.826-4.826 4.826-12.669 0-17.495L358.501 396z"/></svg>