<svg xmlns="http://www.w3.org/2000/svg" width="612" height="481.828"><g fill="#444"><path d="M17.89 8.003c10.928-2.278 29.583-.471 42.369-.471h83.326c13.355 0 30.662-2.164 35.308 6.12 3.539 6.312 1.412 29.029 1.412 38.603v79.56c0 10.737 1.903 33.145-2.354 38.603-5.38 6.899-25.267 4.708-38.132 4.708h-85.68c-17.22 0-40.976 3.384-45.665-7.532-3.082-7.174-.942-28.258-.942-37.662V52.726c0-8.326-2.443-27.963.942-37.191 1.458-3.973 4.054-6.414 9.416-7.532zm17.889 29.188V146.88h116.28V35.779H36.25c-.549.078-.512.743-.471 1.412zm197.252 54.138c26.733-2.673 59.326-.471 87.563-.471h217.024c14.931 0 30.672-1.652 42.369.942 9.237 2.048 19.781 9.445 21.654 21.655 1.876 12.223 0 28.117 0 41.898v251.391c0 14.144 1.239 28.425 0 41.897-1.116 12.153-11.237 21.895-21.185 24.011-12.262 2.608-29.271.471-44.252.471H269.279c-13.914 0-31.877 1.961-42.84-1.412-7.979-2.456-15.513-8.66-18.36-16.947-3.208-9.338-1.412-27.864-1.412-41.897V153c0-13.166-2.15-30.261.941-41.898 3.308-12.449 14.687-18.699 25.423-19.773zm300.351 27.775H329.069c-27.535 0-55.681-2.092-81.916 0-3.526.281-6.396 1.333-9.886 2.354-3.682 11.903-2.354 25.106-2.354 38.132v244.328c0 13.203-1.376 26.557 2.354 38.604 12.447 3.912 26.304 2.354 40.015 2.354h254.215c13.719 0 27.555 1.532 40.016-2.354 3.195-12.291 1.883-25.433 1.883-38.604V160.531c0-13.126 1.294-26.655-1.883-39.074-12.117-3.699-25.18-2.353-38.131-2.353z"/><path d="M362.963 304.587c-14.127-.31-29.497.623-42.84-.471-.78-5.994-.78-15.191 0-21.185 21.971-.783 47.232-.787 69.203 0 1.943 23.502-7.816 39.857-19.772 51.313-12.276 11.763-30.218 20.729-53.196 19.301-37.904-2.354-67.071-32.167-70.145-70.144-.312-3.844-.285-8.362 0-12.711 2.678-40.868 33.733-74.213 81.443-71.086 14.162.928 29.517 6.083 40.015 13.182 2.167 1.464 9.102 5.306 9.416 8.003.459 3.92-4.192 6.63-6.119 8.945-2.145 2.575-4.361 7.371-7.532 7.532-3.14.16-5.858-3.755-8.944-5.649-8.854-5.435-20.119-9.803-34.837-8.945-30.929 1.802-51.858 26.082-48.96 59.317 1.727 19.797 15.703 37.675 32.483 44.723 23.12 9.714 52.833-.517 59.785-22.125zm113.926-104.51c39.36-3.698 63.732 17.917 74.854 37.662 7.652 13.587 10.236 29.562 8.943 46.606-3.506 46.213-48.306 79.648-96.978 66.848-29.692-7.808-55.308-34.4-55.551-74.381-.123-20.111 6.995-37.488 15.063-48.018 11.888-15.514 29.016-26.4 53.669-28.717zm-44.252 77.677c.677 33.422 28.856 54.737 56.492 52.727 25.251-1.838 48.066-21.791 48.02-54.609-.021-13.639-6.807-28.662-12.239-35.308-8.49-10.381-26.319-19.382-45.195-17.418-28.223 2.935-47.708 23.426-47.078 54.608z"/></g></svg>