<svg xmlns="http://www.w3.org/2000/svg" width="325" height="100" viewBox="-137.5 -26.29 325 100"><path fill="#07374F" d="M-77.37-3.46l.02 6.96 12.81-.94-12.83-6.02z"/><path fill="#09527D" d="M-64.2-9.85V2.66l-35.12-15.03-.09-12.77 35.22 15.3z"/><path fill="#454545" d="M-46.95 28.6a9.07 9.07 0 006.6 2.57c2.44 0 4.28-.62 5.5-1.86 1.22-1.24 1.84-2.92 1.84-5.03 0-1.84-.5-3.35-1.5-4.52-1-1.18-2.25-2.17-3.79-2.94a40.52 40.52 0 00-4.73-2.01c-1.05-.36-2.2-.82-3.45-1.37a16.65 16.65 0 01-3.51-2.1 10.03 10.03 0 01-2.72-3.3c-.7-1.35-1.07-3-1.07-4.95 0-2.16.5-4.07 1.52-5.72a10.41 10.41 0 014.3-3.87 14.27 14.27 0 016.56-1.42c2.31 0 4.33.43 6.01 1.25 1.7.83 3.13 1.94 4.31 3.32a18.66 18.66 0 012.87 4.58l-4.22 2.82A20.17 20.17 0 00-34.66.67a11.06 11.06 0 00-3.1-2.63c-1.2-.67-2.6-1-4.18-1-2.12 0-3.7.55-4.8 1.64a6.14 6.14 0 00-1.62 4.46c0 1.39.47 2.54 1.4 3.5.95.97 2.17 1.81 3.67 2.53a55 55 0 004.82 2.08c1.1.4 2.27.95 3.54 1.59 1.26.64 2.43 1.45 3.53 2.42 1.09.96 2 2.14 2.67 3.53a11.37 11.37 0 011.03 5.03c0 2.4-.53 4.53-1.62 6.38a11.24 11.24 0 01-4.52 4.31c-1.93 1.01-4.23 1.52-6.88 1.52-3.49 0-6.58-1.1-9.25-3.26-2.65-2.18-4.67-5-6.02-8.52l4.39-2.63a23.36 23.36 0 004.65 6.98zm26.08-35.23a3.31 3.31 0 012.36-.99c.94 0 1.74.32 2.38.99.64.64.98 1.43.98 2.38 0 .9-.32 1.67-.98 2.35-.65.67-1.44 1-2.38 1-.9 0-1.67-.33-2.36-1a3.27 3.27 0 010-4.73zm4.8 13.98v28.08h-4.88V7.35h4.88zM4.5 11.32c-2.13 0-3.84.66-5.17 1.99-1.32 1.33-2 3-2 5.03v17.09h-4.88V7.35h4.89v4.46A10.04 10.04 0 01.79 8.13a8.9 8.9 0 014.9-1.37c2.9 0 5.23.91 6.98 2.78 1.78 1.84 2.66 4.58 2.66 8.2v17.72h-4.88v-17.1c.04-4.71-1.95-7.04-5.96-7.04zm17.94 2.22a13.18 13.18 0 015.08-5.03 14.04 14.04 0 016.95-1.78c2.08 0 3.95.47 5.6 1.41a10.8 10.8 0 014 4.03V7.35h4.89v27.48c0 3.22-.67 5.91-2.02 8.1a13.1 13.1 0 01-5.18 4.91 14.52 14.52 0 01-6.73 1.64c-2.72 0-5.14-.5-7.24-1.52a11.58 11.58 0 01-6.68-10.69h4.95c0 1.35.37 2.6 1.09 3.75a8 8 0 003.11 2.8 10 10 0 008.97.06 8.48 8.48 0 003.45-3.26c.93-1.48 1.37-3.4 1.37-5.77V30.6a10.8 10.8 0 01-4 4.03 11.12 11.12 0 01-5.59 1.42c-2.53 0-4.85-.6-6.97-1.78a13.14 13.14 0 01-5.07-5.08 15.4 15.4 0 01-1.89-7.82c.03-3.04.64-5.65 1.91-7.84zm4.37 13.35a8.7 8.7 0 003.51 3.42c1.47.77 3.06 1.16 4.75 1.16a9.01 9.01 0 007.65-4.58c.9-1.5 1.35-3.35 1.35-5.5 0-2.17-.45-4-1.35-5.5a9.34 9.34 0 00-3.42-3.44 8.69 8.69 0 00-4.23-1.15c-1.7 0-3.28.38-4.75 1.15a8.76 8.76 0 00-3.5 3.43 10.71 10.71 0 00-1.32 5.5c0 2.17.43 4.01 1.31 5.5z"/><path fill="#C81C3D" d="M61.85 22.8a16.29 16.29 0 005.83 5.91 14.98 14.98 0 007.82 2.13 17.15 17.15 0 0013.73-6.36v6.84a18.05 18.05 0 01-5.88 3.53A22.89 22.89 0 0175.48 36c-2.97 0-5.74-.53-8.33-1.62a20.37 20.37 0 01-6.8-4.6 21.7 21.7 0 01-4.6-6.97 23.11 23.11 0 01-1.64-8.78c0-3.17.56-6.11 1.65-8.79A21.1 21.1 0 0167.14-6.3a21.54 21.54 0 018.33-1.63c3.13 0 5.77.39 7.89 1.16 2.11.77 4.07 1.95 5.86 3.53v6.88a16.7 16.7 0 00-5.74-4.6A17.7 17.7 0 0075.5-2.7c-2.8 0-5.43.7-7.82 2.14a16.56 16.56 0 00-5.83 5.89 16.97 16.97 0 00-2.23 8.76c0 3.27.76 6.19 2.23 8.71zm40.21 7.75h19.22v4.88H96.87V-7.3h24.41v4.89h-19.22v12.2h18v4.89h-18v15.87zm32.06 4.88h-5.19V-7.3h11.59c2.76 0 5.24.52 7.41 1.57a11.95 11.95 0 017.12 11.27c0 3.2-.95 5.88-2.86 8.03a13.88 13.88 0 01-7.34 4.3l12.77 17.6h-6.42l-11.9-17.1h-5.18v17.06zm6.4-21.67c2.76 0 5.01-.73 6.75-2.17 1.73-1.43 2.58-3.46 2.58-6.08 0-2.63-.85-4.66-2.58-6.1-1.74-1.42-3.99-2.15-6.75-2.15h-6.4v16.5h6.4zM157.31-7.3h27.16v4.89H173.5v37.84h-5.19V-2.4h-10.99v-4.9z"/><path d="M-128.9 67.9c.45.43 1 .67 1.7.67.61 0 1.09-.15 1.41-.47.32-.32.47-.76.47-1.29 0-.48-.13-.86-.38-1.16a3.4 3.4 0 00-.97-.75c-.39-.19-.8-.36-1.22-.51-.28-.09-.56-.22-.88-.35a4.39 4.39 0 01-.9-.53 2.54 2.54 0 01-.99-2.1 2.62 2.62 0 011.5-2.44 3.65 3.65 0 011.7-.37c.6 0 1.11.12 1.54.32.43.23.79.5 1.11.87.3.36.56.74.73 1.17l-1.1.74c-.14-.3-.34-.6-.57-.9-.24-.27-.5-.49-.8-.65a2 2 0 00-1.06-.26c-.54 0-.97.15-1.23.42-.27.29-.4.68-.4 1.14 0 .37.13.67.36.91.24.22.56.47.94.63.4.2.8.37 1.25.54.28.1.58.24.9.41.32.17.61.36.9.62.28.24.51.56.68.9.17.36.26.78.26 1.28 0 .63-.13 1.16-.4 1.63-.29.48-.67.84-1.17 1.1a3.8 3.8 0 01-1.75.38c-.9 0-1.7-.29-2.38-.83a5.13 5.13 0 01-1.54-2.2l1.14-.66c.32.72.7 1.3 1.15 1.74zm6.94-9.04a.79.79 0 01.6-.26c.24 0 .45.08.62.26.17.17.26.37.26.6a.8.8 0 01-.26.6.83.83 0 01-.62.25.81.81 0 01-.6-.25.83.83 0 010-1.2zm1.24 3.6v7.2h-1.26v-7.2h1.26zm5.52 1.01a1.75 1.75 0 00-1.84 1.8v4.37h-1.23v-7.2h1.26v1.14c.21-.4.51-.7.88-.94.36-.24.79-.34 1.26-.34.75 0 1.35.24 1.8.7.45.47.68 1.17.68 2.1v4.54h-1.26v-4.37c0-1.2-.51-1.8-1.54-1.8zm4.85.57c.32-.56.75-.97 1.3-1.28.54-.3 1.14-.45 1.78-.45.54 0 1.01.13 1.44.36.43.24.77.58 1.02 1.04v-1.25h1.27v7.05c0 .81-.17 1.53-.51 2.08s-.8.99-1.33 1.26c-.54.27-1.12.43-1.74.43-.7 0-1.33-.14-1.86-.4a3 3 0 01-1.26-1.08 2.97 2.97 0 01-.45-1.62h1.26c0 .33.09.66.28.96.19.3.45.54.79.73.34.19.75.27 1.22.27.37 0 .73-.08 1.1-.26.36-.17.64-.44.87-.83.24-.38.35-.87.35-1.49v-1.05c-.26.44-.6.79-1.03 1.02-.43.24-.9.36-1.44.36-.64 0-1.24-.14-1.77-.44-.54-.3-.99-.74-1.31-1.32a4.42 4.42 0 01.02-4.09zm1.14 3.41c.2.38.53.68.9.88.38.2.78.3 1.22.3a2.28 2.28 0 001.96-1.18c.24-.38.35-.86.35-1.4 0-.57-.1-1.04-.35-1.43a2.34 2.34 0 00-1.96-1.17c-.45 0-.86.1-1.23.3-.38.2-.68.5-.9.87-.23.39-.34.86-.34 1.42 0 .55.1 1.03.35 1.41zm7.75-4.26c.27-.2.64-.38 1.09-.6.45-.2 1-.3 1.67-.3.84 0 1.5.2 2.02.59.5.37.76.91.76 1.62v5.15h-1.26v-1.02c-.2.39-.56.68-.98.88-.45.2-.92.3-1.48.3a3.1 3.1 0 01-1.25-.26c-.38-.17-.68-.4-.9-.75a2.02 2.02 0 01-.33-1.22c0-.77.27-1.35.8-1.78.57-.42 1.31-.65 2.26-.65a3.44 3.44 0 011.89.51v-1.19a.85.85 0 00-.48-.8c-.3-.2-.66-.28-1.05-.28-.51 0-.96.08-1.32.27-.37.2-.65.35-.82.47l-.62-.94zm1.04 5.2c.31.2.67.3 1.08.3.62 0 1.13-.15 1.54-.42.41-.29.6-.78.6-1.44v-.28a4.25 4.25 0 00-1.82-.42c-.64 0-1.12.12-1.41.39-.3.25-.46.6-.46 1.02.03.39.18.66.47.86zm13.18-.34c-.32.56-.75 1-1.29 1.31-.53.3-1.13.45-1.8.45a2.74 2.74 0 01-2.46-1.38v4.65h-1.26V62.45h1.26v1.24a3 3 0 011.03-1.02c.43-.24.9-.37 1.43-.37a3.41 3.41 0 013.09 1.73c.32.56.5 1.22.5 2.02 0 .79-.18 1.45-.5 2zm-1.12-3.4a2.17 2.17 0 00-.9-.88c-.36-.2-.79-.3-1.22-.3a2.29 2.29 0 00-1.96 1.18c-.24.38-.35.85-.35 1.4 0 .57.11 1.03.35 1.43.23.38.5.68.88.87.36.2.7.3 1.08.3.46 0 .86-.1 1.23-.3.36-.19.66-.49.9-.87.2-.4.33-.86.33-1.43a3.05 3.05 0 00-.34-1.4zm3.05-.54a3.75 3.75 0 013.26-1.82c.7 0 1.34.18 1.9.5a3.59 3.59 0 011.82 3.27c0 .73-.17 1.37-.49 1.92-.32.59-.77 1.01-1.33 1.33-.56.32-1.2.5-1.9.5a3.8 3.8 0 01-3.26-1.82 3.9 3.9 0 01-.5-1.94c0-.74.15-1.38.5-1.94zm1.1 3.28c.2.39.5.68.87.92a2.52 2.52 0 002.53 0c.36-.21.66-.53.87-.92.22-.4.32-.84.32-1.33 0-.5-.1-.94-.32-1.33-.2-.37-.51-.7-.87-.91a2.4 2.4 0 00-1.27-.33 2.4 2.4 0 00-2.14 1.24c-.21.39-.32.83-.32 1.33 0 .5.1.94.32 1.33zm10.42-3.83a1.1 1.1 0 00-.51-.09c-.48 0-.8.17-.97.51-.17.34-.26.78-.26 1.29v4.37h-1.26v-7.2h1.26v.84c.22-.3.46-.54.71-.73.26-.17.54-.26.82-.26.25 0 .51.04.72.1.22.08.44.2.63.42l-.69 1.02a3.7 3.7 0 00-.45-.27zm3.34 4.49c.41.39.94.58 1.6.58.52 0 .97-.12 1.36-.36.36-.24.68-.56.92-.94l1.03.64c-.24.36-.52.69-.8.96-.3.28-.64.5-1.06.64a4.7 4.7 0 01-1.57.24 3.34 3.34 0 01-2.98-1.82 4.1 4.1 0 01-.45-1.93c0-.12 0-.26.03-.4a4 4 0 01.66-1.94 3.41 3.41 0 012.89-1.43 3.15 3.15 0 012.97 1.73c.29.56.44 1.2.44 1.97v.2s0 .13-.03.2h-5.67c.04.7.25 1.25.66 1.66zm3.64-2.76a2.26 2.26 0 00-.6-1.37c-.34-.36-.81-.53-1.43-.53a2.4 2.4 0 00-1.52.51 2 2 0 00-.76 1.4h4.31zm8.93 1.11a4 4 0 003.52 2.08c.77 0 1.46-.15 2.05-.45.6-.3 1.1-.69 1.48-1.18v1.76a4.73 4.73 0 01-3.52 1.2 5.34 5.34 0 01-5.07-3.38 5.89 5.89 0 01-.43-2.26 5.87 5.87 0 011.6-4.05 5.4 5.4 0 013.9-1.58c.82 0 1.49.11 2.02.3.54.19 1.05.49 1.5.9v1.75a4.38 4.38 0 00-5.55-1.06 4.24 4.24 0 00-2.08 3.74c0 .84.2 1.58.58 2.23zm9.02-2.29a3.75 3.75 0 013.26-1.82c.7 0 1.35.18 1.9.5.56.32 1.01.77 1.33 1.32.32.56.5 1.2.5 1.95 0 .73-.18 1.37-.5 1.92-.32.59-.77 1.01-1.33 1.33-.55.32-1.2.5-1.9.5a3.8 3.8 0 01-3.26-1.82 3.95 3.95 0 01-.49-1.94c0-.74.17-1.38.49-1.94zm1.1 3.28c.2.39.5.68.87.92a2.5 2.5 0 002.53 0c.36-.21.66-.53.88-.92.21-.4.32-.84.32-1.33a2.48 2.48 0 00-1.2-2.24c-.36-.23-.8-.33-1.27-.33a2.38 2.38 0 00-2.14 1.24c-.2.39-.32.83-.32 1.33 0 .5.11.94.32 1.33zm17.32 2.26h-1.26V65.3c0-.6-.1-1.05-.3-1.35-.22-.3-.56-.45-1.07-.45-.54 0-.97.18-1.24.52-.29.34-.44.76-.44 1.28v4.36H-36V65.3c0-.6-.1-1.05-.3-1.35-.2-.3-.56-.46-1.07-.46-.53 0-.96.18-1.24.53-.28.34-.43.76-.43 1.28v4.36h-1.27v-7.19h1.27v1.05a2.18 2.18 0 012-1.2c1.04 0 1.73.44 2.07 1.35.23-.4.54-.75.92-.99.39-.23.81-.36 1.3-.36.75 0 1.31.24 1.72.71.4.46.6 1.18.6 2.1v4.53zm8.94-1.6c-.33.56-.76 1-1.3 1.31a3.7 3.7 0 01-1.8.45 2.7 2.7 0 01-2.46-1.38v4.65h-1.26V62.45h1.27v1.24c.27-.45.61-.8 1.02-1.02.43-.24.9-.37 1.44-.37a3.39 3.39 0 013.08 1.73c.32.56.5 1.22.5 2.02 0 .79-.18 1.45-.5 2zm-1.12-3.4a2.17 2.17 0 00-.9-.88c-.36-.2-.8-.3-1.23-.3a2.3 2.3 0 00-1.96 1.18c-.24.38-.34.85-.34 1.4 0 .57.1 1.03.34 1.43a2.31 2.31 0 003.2.88c.35-.2.66-.5.89-.88a3.09 3.09 0 000-2.83zm5.95 3.98c.56 0 1.01-.17 1.33-.51.34-.35.5-.78.5-1.29v-4.37h1.26v7.2h-1.25v-1.14c-.2.4-.5.7-.87.94s-.8.34-1.27.34a2.4 2.4 0 01-1.8-.7c-.45-.47-.68-1.17-.68-2.1v-4.54h1.26v4.37c-.02 1.2.5 1.8 1.52 1.8zm6.62-8.67v2.5h1.18v1.18h-1.18v6.01h-1.26v-6.01h-1.16v-1.18h1.18v-2.5h1.24zm3.65 8.09c.4.39.93.58 1.6.58.51 0 .96-.12 1.35-.36.36-.24.69-.56.92-.94l1.03.64a6 6 0 01-.8.96c-.3.28-.64.5-1.07.64-.43.15-.94.24-1.56.24a3.32 3.32 0 01-2.98-1.82 4.1 4.1 0 01-.38-2.7c.1-.6.32-1.12.62-1.56.32-.45.73-.8 1.22-1.05a3.57 3.57 0 011.67-.39c.68 0 1.29.15 1.78.45.51.3.9.73 1.2 1.29.28.55.42 1.2.42 1.96v.2s0 .13-.02.2h-5.7c.06.7.27 1.25.7 1.66zm3.61-2.76a2.24 2.24 0 00-.6-1.37c-.34-.36-.81-.53-1.44-.53-.57 0-1.06.17-1.52.51a2 2 0 00-.74 1.4h4.3zm5.94-1.73c-.13-.07-.3-.09-.52-.09-.47 0-.8.17-.96.51-.18.34-.26.78-.26 1.29v4.37H.15v-7.2H1.4v.84c.21-.3.45-.54.7-.73.26-.17.54-.26.82-.26.26 0 .51.04.73.1.21.08.43.2.62.42l-.69 1.02a3.55 3.55 0 00-.44-.27zm8.2 4.84h4.94v1.23h-6.27V58.68h6.27v1.25h-4.94v3.14h4.62v1.23h-4.62v4.1zm16.94 1.25h-1.27V65.3c0-.6-.1-1.05-.3-1.35-.21-.3-.55-.45-1.07-.45-.53 0-.96.18-1.24.52s-.43.76-.43 1.28v4.36h-1.26V65.3c0-.6-.1-1.05-.3-1.35-.22-.3-.56-.46-1.07-.46-.54 0-.96.18-1.24.53a2 2 0 00-.43 1.28v4.36h-1.26v-7.19h1.26v1.05c.21-.36.47-.67.81-.88.34-.21.73-.32 1.18-.32 1.05 0 1.74.44 2.08 1.35a2.46 2.46 0 012.23-1.35c.75 0 1.3.24 1.71.71.4.46.6 1.18.6 2.1v4.53zm3.53-1.6c.41.39.94.58 1.6.58.52 0 .97-.12 1.35-.36.38-.24.69-.56.93-.94l1.03.64c-.24.36-.52.69-.79.96-.31.28-.65.5-1.08.64-.43.15-.94.24-1.56.24a3.34 3.34 0 01-2.98-1.82 4.13 4.13 0 01-.43-2.32c0-.12.03-.26.05-.38.1-.6.32-1.12.62-1.56a3.56 3.56 0 012.9-1.43c.67 0 1.27.14 1.76.44.52.3.9.73 1.2 1.29.28.55.44 1.2.44 1.96v.2s0 .13-.02.2h-5.68c.02.7.25 1.25.66 1.66zm3.64-2.76a2.21 2.21 0 00-.6-1.37c-.34-.36-.81-.53-1.43-.53-.58 0-1.08.17-1.52.51-.44.34-.69.81-.75 1.4h4.3zm5.92-1.73c-.14-.07-.3-.09-.52-.09-.47 0-.8.17-.96.51a2.8 2.8 0 00-.26 1.29v4.37h-1.26v-7.2h1.26v.84c.22-.3.46-.54.7-.73.26-.17.55-.26.82-.26.26 0 .52.04.73.1.22.08.43.2.62.42l-.68 1.02c-.15-.12-.3-.21-.45-.27zm1.85.48c.33-.56.76-.97 1.32-1.28.53-.3 1.14-.45 1.8-.45.53 0 1 .13 1.43.36.43.24.77.58 1.03 1.04v-1.25h1.26v7.05c0 .81-.17 1.53-.52 2.08-.34.55-.79.99-1.33 1.26a4.25 4.25 0 01-3.59.04 2.9 2.9 0 01-1.71-2.7h1.26c0 .32.08.65.28.95.2.3.44.54.79.73.35.19.75.27 1.22.27.37 0 .73-.08 1.1-.26.36-.17.64-.44.88-.83.22-.38.34-.87.34-1.49v-1.05a2.71 2.71 0 01-2.46 1.38 3.37 3.37 0 01-3.1-1.76 3.88 3.88 0 01-.5-1.99c.04-.87.19-1.53.5-2.1zm1.14 3.41c.21.38.53.68.9.88.38.2.8.3 1.22.3a2.3 2.3 0 001.97-1.18c.24-.38.35-.86.35-1.4 0-.57-.1-1.04-.35-1.43a2.32 2.32 0 00-1.97-1.17c-.45 0-.85.1-1.22.3-.38.2-.69.5-.9.87-.23.39-.34.86-.34 1.42 0 .55.1 1.03.34 1.41zm9.14.6c.42.39.94.58 1.62.58.51 0 .96-.12 1.35-.36.35-.24.68-.56.92-.94l1.02.64c-.24.36-.5.69-.79.96-.3.28-.65.5-1.06.64a4.8 4.8 0 01-1.57.24 3.3 3.3 0 01-2.98-1.82 4.06 4.06 0 01-.43-2.32c0-.12.03-.26.04-.38.1-.6.32-1.12.64-1.56.3-.45.71-.8 1.2-1.05.5-.26 1.06-.39 1.68-.39.69 0 1.28.15 1.77.45.52.3.9.73 1.2 1.29.29.55.44 1.2.44 1.96v.2s0 .13-.03.2h-5.67c.01.7.25 1.25.65 1.66zm3.65-2.76a2.31 2.31 0 00-.6-1.37c-.34-.36-.81-.53-1.43-.53-.59 0-1.07.17-1.53.51-.43.34-.68.81-.74 1.4h4.3zm6.02-1.82a1.75 1.75 0 00-1.85 1.8v4.37h-1.25v-7.2h1.25v1.14c.22-.4.52-.7.89-.94.35-.24.78-.34 1.26-.34.75 0 1.35.24 1.8.7a3 3 0 01.69 2.1v4.54H64.7v-4.37c.02-1.2-.5-1.8-1.52-1.8zm5.88 3.92c.23.39.52.68.89.92.36.21.78.35 1.26.35.58 0 1.12-.13 1.57-.39.44-.25.76-.58.93-.92v1.56c-.26.3-.6.52-1.06.7a4.26 4.26 0 01-3.35-.27c-.55-.32-1-.77-1.35-1.32a4 4 0 01-.48-1.94c0-.72.17-1.37.48-1.95a3.8 3.8 0 013.26-1.82c.5 0 .97.09 1.44.24.47.18.8.38 1.06.68v1.57a2.04 2.04 0 00-.93-.93 3.16 3.16 0 00-1.57-.38 2.4 2.4 0 00-2.15 1.24c-.2.39-.31.83-.31 1.32 0 .5.1.95.31 1.34zm7.48 5.69h-1.41l1.97-4.45-2.77-6.16h1.5l2.02 4.96 1.97-4.96h1.42l-4.7 10.61zm11.68-3.43H86.9V58.72h2.96c.7 0 1.35.12 1.91.4a3.08 3.08 0 011.83 2.89c0 .82-.24 1.5-.73 2.06-.5.55-1.13.93-1.9 1.09l3.29 4.5h-1.65l-3.07-4.37h-1.32v4.36zm1.64-5.56c.7 0 1.29-.19 1.74-.56.45-.36.67-.88.67-1.56s-.22-1.2-.67-1.56a2.68 2.68 0 00-1.74-.56h-1.64v4.22l1.64.02zm6.92 3.96c.4.39.94.58 1.61.58.52 0 .96-.12 1.36-.36.35-.24.68-.56.9-.94l1.03.64c-.23.36-.5.69-.79.96-.3.28-.64.5-1.06.64-.43.15-.95.24-1.57.24-.64 0-1.22-.17-1.76-.5-.5-.32-.9-.77-1.21-1.32a3.98 3.98 0 01-.43-2.32 3.88 3.88 0 01.66-1.94c.33-.45.73-.8 1.22-1.05a3.56 3.56 0 011.68-.39c.68 0 1.28.15 1.77.45.5.3.9.73 1.2 1.29.28.55.43 1.2.43 1.96v.2s0 .13-.03.2h-5.67c.02.7.26 1.25.66 1.66zm3.65-2.76a2.27 2.27 0 00-.6-1.37c-.34-.36-.82-.53-1.44-.53a2.4 2.4 0 00-1.52.51c-.43.34-.68.81-.75 1.4h4.3zm4.07 2.91c.35.28.72.42 1.06.42s.62-.05.84-.2a.79.79 0 00.34-.67.86.86 0 00-.24-.61 1.85 1.85 0 00-.6-.44c-.23-.12-.5-.23-.79-.34l-.96-.42a2.42 2.42 0 01-.8-.63 1.64 1.64 0 01-.32-1.07c0-.45.12-.82.34-1.09.24-.27.53-.5.89-.65a3.5 3.5 0 011.1-.19c.59 0 1.11.13 1.57.42.48.26.82.6 1.03 1l-1 .64a2.65 2.65 0 00-.72-.64c-.3-.2-.6-.28-.87-.28-.32 0-.57.06-.8.17-.21.1-.31.3-.31.58 0 .24.09.41.28.56.19.14.43.25.7.36.29.1.56.2.82.33.34.11.67.29.96.5.3.18.56.39.73.67.19.27.27.6.27 1 0 .78-.23 1.34-.7 1.68a3 3 0 01-1.76.5 2.8 2.8 0 01-1.78-.59c-.51-.4-.92-.9-1.2-1.48l1-.6c.23.43.55.8.92 1.07zm11.75-.15c-.32.56-.75 1-1.28 1.31-.53.3-1.14.45-1.8.45a2.73 2.73 0 01-2.45-1.38v4.65h-1.27V62.45h1.26v1.24a2.9 2.9 0 011.02-1.02c.43-.24.9-.37 1.43-.37.67 0 1.28.15 1.8.45.54.3.97.73 1.29 1.29.32.55.5 1.21.5 2.01 0 .79-.18 1.45-.5 2zm-1.11-3.4c-.24-.39-.5-.69-.9-.88a2.35 2.35 0 00-3.2.88c-.23.38-.33.85-.33 1.4 0 .57.1 1.03.34 1.43a2.33 2.33 0 003.19.87c.36-.19.66-.49.9-.87.21-.4.34-.86.34-1.43 0-.55-.13-1.02-.34-1.4zm3.04-.54c.32-.55.77-1 1.36-1.32.55-.32 1.19-.5 1.9-.5a3.74 3.74 0 013.23 1.82c.32.56.5 1.2.5 1.95 0 .73-.18 1.37-.5 1.92-.33.59-.77 1.01-1.33 1.33-.55.32-1.2.5-1.9.5a3.76 3.76 0 01-3.26-1.83 3.88 3.88 0 01-.5-1.92c0-.75.17-1.4.5-1.95zm1.1 3.28c.2.39.5.68.87.92a2.54 2.54 0 002.53 0c.36-.21.66-.53.87-.92.22-.4.33-.84.33-1.33 0-.5-.11-.94-.33-1.33-.2-.37-.5-.7-.87-.91-.37-.23-.8-.33-1.26-.33-.48 0-.9.1-1.27.33-.37.2-.67.5-.87.91-.23.39-.33.83-.33 1.33 0 .5.1.94.33 1.33zm10.54-3.92a1.75 1.75 0 00-1.85 1.8v4.37h-1.27v-7.2h1.27v1.14c.21-.4.52-.7.87-.94.37-.24.8-.34 1.27-.34.75 0 1.35.24 1.8.7a3 3 0 01.68 2.1v4.54h-1.26v-4.37c.02-1.2-.49-1.8-1.51-1.8zm6.12 4.73c.36.28.72.42 1.06.42.35 0 .63-.05.84-.2a.77.77 0 00.35-.67.87.87 0 00-.25-.61 1.78 1.78 0 00-.6-.44c-.22-.12-.5-.23-.79-.34l-.95-.42c-.33-.15-.59-.38-.8-.63s-.33-.62-.33-1.07c0-.45.11-.82.35-1.09.24-.27.52-.5.89-.65a3.4 3.4 0 011.1-.19c.58 0 1.1.13 1.57.42.47.26.81.6 1.02 1l-1 .64c-.17-.24-.41-.45-.7-.64a1.7 1.7 0 00-1.67-.1c-.22.1-.32.29-.32.57 0 .24.08.41.27.56.18.14.42.25.71.36.27.1.55.2.8.33.35.11.67.29.98.5.3.18.55.39.72.67.19.27.28.6.28 1 0 .78-.24 1.34-.7 1.68-.48.34-1.08.5-1.77.5a2.8 2.8 0 01-1.78-.59c-.5-.4-.9-.9-1.19-1.48l.98-.6c.25.43.56.8.93 1.07zm6.37-.15c.42.39.96.58 1.62.58.51 0 .95-.12 1.35-.36.36-.24.68-.56.91-.94l1.03.64c-.23.36-.52.69-.79.96-.3.28-.64.5-1.07.64-.43.15-.94.24-1.57.24a3.36 3.36 0 01-2.98-1.82 4.2 4.2 0 01-.44-1.93c0-.12 0-.26.02-.4a4.05 4.05 0 01.66-1.94c.33-.44.73-.8 1.23-1.04.5-.26 1.05-.39 1.67-.39a3.2 3.2 0 012.98 1.73c.26.56.42 1.2.42 1.97v.2s0 .13-.02.2h-5.68c.03.7.27 1.25.66 1.66zm3.65-2.76a2.24 2.24 0 00-.6-1.37c-.34-.36-.81-.53-1.43-.53-.58 0-1.08.17-1.53.51-.42.34-.68.81-.75 1.4h4.3zm6.44-6.61h7v1.25h-2.84v9.7h-1.32v-9.67h-2.83v-1.28zm7.95 9.37c.4.39.94.58 1.61.58.51 0 .95-.12 1.35-.36.35-.24.68-.56.92-.94l1.03.64a6 6 0 01-.8.96c-.3.28-.64.5-1.06.64-.44.15-.94.24-1.58.24a3.34 3.34 0 01-2.97-1.82 4.13 4.13 0 01-.43-2.32c0-.12.03-.26.05-.38.1-.6.33-1.12.62-1.56.32-.45.73-.8 1.22-1.05a3.54 3.54 0 011.67-.39 3.15 3.15 0 012.97 1.73c.29.56.43 1.2.43 1.97v.2s0 .13-.02.2h-5.67c.01.7.25 1.25.66 1.66zm3.64-2.76a2.24 2.24 0 00-.6-1.37c-.34-.36-.82-.53-1.43-.53a2.4 2.4 0 00-1.52.51c-.44.34-.7.81-.75 1.4h4.3zm2.89-2.1a4.32 4.32 0 012.76-.9c.84 0 1.5.2 2.02.59.51.37.77.91.77 1.62v5.15h-1.26v-1.02c-.22.39-.56.68-.99.88-.44.2-.92.3-1.48.3-.44 0-.85-.1-1.24-.26-.38-.17-.68-.4-.9-.75a2.02 2.02 0 01-.34-1.22c0-.77.28-1.35.81-1.78a3.65 3.65 0 012.25-.65 3.55 3.55 0 011.89.52v-1.2c0-.35-.15-.64-.47-.8-.31-.2-.67-.28-1.06-.28-.5 0-.95.08-1.33.27-.35.2-.64.35-.8.47l-.63-.94zm1.05 5.2c.3.2.67.3 1.07.3.63 0 1.13-.15 1.54-.42.41-.29.6-.78.6-1.44v-.28a4.12 4.12 0 00-1.81-.42c-.64 0-1.12.12-1.42.39-.3.25-.45.6-.45 1.02a1 1 0 00.47.86zm16.32 1.26h-1.26V65.3c0-.6-.1-1.05-.3-1.35-.21-.3-.55-.45-1.08-.45s-.95.18-1.23.52-.43.76-.43 1.28v4.36h-1.27V65.3c0-.6-.1-1.05-.3-1.35-.21-.3-.55-.46-1.06-.46-.54 0-.97.18-1.25.53-.27.34-.42.76-.42 1.28v4.36h-1.27v-7.19h1.27v1.05c.21-.36.46-.67.81-.88.35-.21.72-.32 1.18-.32 1.04 0 1.74.44 2.08 1.35a2.45 2.45 0 012.23-1.35c.74 0 1.3.24 1.7.71.4.46.6 1.18.6 2.1v4.53z" fill="#454545"/><path fill="#09527D" d="M-98.85 38.28L-99.28 52s13.07-3.93 22.86-15.47c-6.28-3.3-10.93-5.35-10.93-5.35s-3.77 4.6-11.5 7.11z"/><path fill="#09527D" d="M-130.23 23.59l14.7 1.45s7.64 12.2 16.68 13.24c-.1 3.67-.43 13.71-.43 13.71s-21.91-4.88-30.95-28.4z"/><path fill="#C81C3D" d="M-78.29 38.59c.6-.38 4.59-5.36 4.59-5.36L-134.36.4s-.2 8.1.2 9.3c.38 1.18 55.87 28.88 55.87 28.88z"/><path fill="#09527D" d="M-130.97 1.23l31.73-13.6.07-12.77-35.2 15.3v9.3"/><path fill="#C81C3D" d="M-73.55 32.54c1.92-2.5 3.8-6.5 3.8-6.5l-64.61-35.9v9.23l60.8 33.17z"/><path fill="#09527D" d="M-100.14 4.6l35.9-2.37s-.21 10.35-1.86 15.96c-3.8-1.78-34.04-13.6-34.04-13.6z"/></svg>